PathFileType  4	(X/Y/Z) C:\Users\antoi\Documents\MyRepositories\mobilecap\ResultsAnalysis
DataRate	CameraRate	NumFrames	NumMarkers	Units	OrigDataRate	OrigDataStartFrame	OrigNumFrames
100.0	100.0	4	51	mm	100.0	204	271
Frame#	Time	r_knee			r_shank_antsup			r_ankle			r_calc			r_5meta			r_toe			L_knee			L_shank_antsup			L_ankle			L_calc			L_5meta			L_toe			r_sh2			r_sh3			r_sh4			L_sh2			L_sh3			r_thigh1			r_thigh2			r_thigh3			r_thigh4			r_thigh5			L_thigh1			L_thigh2			L_thigh3			L_thigh4			r.ASIS			r.PSIS			L.ASIS			L.PSIS			C7			R_Shoulder			L_Shoulder			R_Sternum			L_Sternum			R_humerus			R_elbow_med			R_elbow_lat			R_forearm			R_wrist_radius			R_wrist_ulna			L_humerus			L_elbow_med			L_elbow_lat			L_forearm			L_wrist_radius			L_wrist_ulna			R_HJC			L_HJC			R_HJC_reg			L_HJC_reg			
		X1	Y1	Z1	X2	Y2	Z2	X3	Y3	Z3	X4	Y4	Z4	X5	Y5	Z5	X6	Y6	Z6	X7	Y7	Z7	X8	Y8	Z8	X9	Y9	Z9	X10	Y10	Z10	X11	Y11	Z11	X12	Y12	Z12	X13	Y13	Z13	X14	Y14	Z14	X15	Y15	Z15	X16	Y16	Z16	X17	Y17	Z17	X18	Y18	Z18	X19	Y19	Z19	X20	Y20	Z20	X21	Y21	Z21	X22	Y22	Z22	X23	Y23	Z23	X24	Y24	Z24	X25	Y25	Z25	X26	Y26	Z26	X27	Y27	Z27	X28	Y28	Z28	X29	Y29	Z29	X30	Y30	Z30	X31	Y31	Z31	X32	Y32	Z32	X33	Y33	Z33	X34	Y34	Z34	X35	Y35	Z35	X36	Y36	Z36	X37	Y37	Z37	X38	Y38	Z38	X39	Y39	Z39	X40	Y40	Z40	X41	Y41	Z41	X42	Y42	Z42	X43	Y43	Z43	X44	Y44	Z44	X45	Y45	Z45	X46	Y46	Z46	X47	Y47	Z47	X48	Y48	Z48	X49	Y49	Z49	X50	Y50	Z50	X51	Y51	Z51	

204	2.03000000	-88.01723	424.84428	-421.88446	-53.66066	352.73066	-416.51616	-270.89070	103.21242	-409.38987	-332.79358	73.14627	-453.71557	-184.21996	46.36476	-361.28906	-133.55127	53.66062	-409.59178	-51.45785	419.01620	-750.87314	-35.82390	323.16933	-741.58048	-243.49313	104.43960	-778.97918	-315.43376	70.88255	-738.71278	-159.43379	43.53385	-812.38936	-105.20850	53.57644	-760.12678	-117.65983	259.91762	-402.16781	-107.40367	400.99315	-385.76900	-183.99892	306.39533	-379.69803	-90.40417	378.16187	-789.41647	-153.80101	273.62503	-808.13384	-209.04841	639.17855	-395.89670	-132.59685	557.26671	-398.29705	-211.56840	484.39914	-437.60978	-291.55220	570.70799	-428.59896	-168.74999	497.63118	-406.77411	-190.22071	653.95498	-793.65583	-100.02275	552.65712	-772.98056	-279.59279	586.26432	-783.32953	-188.71831	483.46737	-748.08328	-212.77051	773.00535	-489.55122	-390.96759	866.01568	-574.63138	-199.81423	768.81129	-705.04716	-386.23460	859.89033	-656.33661	-89.65708	1199.41983	-609.08665	-28.94493	1176.90924	-480.63375	-6.47908	1169.40263	-717.09107	20.72048	1114.29490	-573.57146	20.88957	1110.31909	-604.63464	38.09470	1131.27439	-409.76979	133.66098	954.22468	-309.00139	141.74489	1016.44389	-273.53920	201.88374	1074.86153	-324.77738	294.86890	1125.40417	-407.78827	323.47456	1107.47264	-386.13862	70.17207	1131.12375	-774.74878	224.78349	958.62565	-795.20785	232.19972	1021.35543	-831.29602	296.87797	1077.53464	-762.11645	359.70116	1122.08570	-666.83183	389.79819	1097.24220	-677.00423	-316.10602	716.29290	-498.38700	-301.97795	712.60047	-705.38005	-298.74397	738.22574	-521.29617	-290.52700	727.58968	-663.17272	
205	2.04000000	-92.56346	429.98454	-420.90562	-58.03306	358.19478	-415.59994	-270.40016	104.23789	-409.30090	-332.18903	74.95209	-453.66332	-184.01891	46.37022	-361.18550	-133.38170	53.60416	-409.13298	-55.72857	423.51651	-751.44762	-39.13774	327.93800	-742.91851	-243.29456	105.35027	-778.83732	-314.87440	72.28828	-738.52146	-159.34937	43.63814	-812.34003	-105.00313	53.61098	-760.18248	-120.13360	264.18972	-401.31162	-112.49198	405.50858	-384.79849	-187.36469	309.64687	-378.68732	-95.01131	382.11930	-790.23159	-156.99255	276.46155	-808.07159	-206.31762	649.03133	-394.79251	-132.98733	564.54579	-397.47914	-214.64124	494.40430	-436.33391	-291.28304	583.67094	-427.32543	-171.46876	506.45773	-405.62337	-187.02681	663.88696	-794.30111	-100.13826	558.63958	-773.04574	-278.36561	598.38625	-782.57407	-190.87678	492.35484	-747.89111	-208.05044	786.69354	-488.49646	-386.72965	878.77660	-573.78751	-194.70661	781.94450	-703.20432	-381.64803	872.47464	-655.85173	-92.28201	1217.01045	-608.39055	-30.19692	1199.70662	-484.15115	-7.81802	1194.86562	-712.11175	19.92440	1133.45304	-573.71095	20.24126	1129.26947	-603.79436	40.75151	1164.62361	-412.56036	153.71252	1004.34067	-303.82084	155.34773	1068.24621	-272.72745	204.92365	1131.58781	-328.25328	286.06834	1191.19251	-416.82758	317.39090	1178.33621	-395.77365	70.55265	1165.21923	-770.85236	239.69824	1008.82807	-796.05147	240.54220	1073.37760	-831.77783	295.07296	1136.49050	-760.37087	347.74867	1189.27933	-664.05891	381.25560	1168.68232	-672.88386	-311.28606	729.58354	-497.07227	-296.63712	725.32624	-704.01686	-293.84632	751.50999	-520.36777	-285.09705	740.65872	-661.69824	
206	2.05000000	-98.30045	436.34199	-419.34222	-63.70770	364.84083	-414.05105	-269.82294	105.49990	-408.88425	-331.40246	77.21127	-453.39888	-183.81745	46.32216	-361.13920	-133.25151	53.51654	-408.72583	-60.90335	428.94774	-752.22954	-43.41574	333.67085	-744.37867	-243.01398	106.39611	-778.79688	-314.17198	74.05878	-738.42841	-159.17801	43.74400	-812.31422	-104.93804	53.50967	-760.32655	-123.46384	269.50835	-399.84612	-119.11042	410.85305	-383.54371	-191.82738	313.30406	-377.55015	-100.65146	386.55029	-790.86440	-160.79568	279.97526	-808.37879	-203.90890	660.60653	-393.40434	-133.79095	573.14241	-396.50891	-218.43103	506.04619	-434.54768	-291.41150	598.26668	-425.65488	-174.77032	516.44396	-404.17353	-183.55744	674.59041	-793.72582	-100.51510	565.80937	-773.30729	-276.98246	612.32103	-782.38952	-193.56804	502.71667	-748.23026	-202.85268	801.88751	-487.14160	-381.83944	893.14469	-573.35940	-189.20427	796.33037	-701.23797	-376.45374	886.43747	-655.24459	-94.71995	1236.29426	-607.66624	-31.47140	1224.63299	-487.39102	-9.96775	1221.53614	-707.04079	21.27269	1157.11808	-573.15420	20.24367	1151.01892	-602.91530	42.02010	1198.97305	-415.44701	169.04250	1055.45226	-300.47428	164.71266	1120.51358	-273.30087	203.98233	1186.95002	-332.54634	273.14418	1252.73113	-426.03082	306.07630	1244.93263	-405.60646	69.80861	1200.37432	-766.36502	249.99861	1060.20591	-798.22644	244.72347	1125.30865	-833.06086	289.55226	1193.48354	-760.05384	332.19671	1252.16791	-662.75748	368.17859	1235.61662	-670.31677	-306.09272	744.51902	-495.55995	-290.82600	739.32385	-702.44017	-288.59421	766.55965	-519.06466	-279.32795	755.01895	-659.92512	
207	2.06000000	-105.42139	443.82829	-417.24261	-71.06518	372.58437	-412.25299	-269.10472	107.11440	-408.05830	-330.40690	80.00616	-452.73004	-183.51298	46.21986	-361.05185	-133.00944	53.48139	-408.33651	-67.04229	435.49355	-753.33439	-48.76753	340.50214	-745.99649	-242.58600	107.78352	-778.95249	-313.39837	76.23320	-738.36590	-158.88719	43.80782	-812.28738	-104.97411	53.18024	-760.52453	-127.99376	275.78581	-397.91477	-127.49834	416.78003	-382.09005	-197.74705	317.53743	-376.20789	-107.32831	391.93875	-791.94006	-165.24801	284.19050	-809.17694	-201.72136	673.57451	-391.85647	-135.42215	582.88250	-394.79398	-223.14106	519.49278	-432.24380	-291.88577	614.45523	-423.94073	-178.81116	527.79013	-402.29805	-179.87525	686.45235	-792.52604	-101.29870	574.32150	-773.80375	-275.53107	627.91951	-782.34519	-196.81986	514.55751	-748.88423	-196.92065	818.49841	-485.67546	-376.35683	908.99148	-573.06492	-183.03078	811.90309	-699.72866	-370.73759	901.73058	-654.41233	-96.84502	1257.62746	-606.78330	-33.40971	1251.41702	-490.35990	-12.52315	1248.55800	-702.36025	24.00177	1184.49831	-571.76002	21.01457	1175.38073	-601.85966	41.71009	1234.04284	-418.42265	179.33330	1105.42078	-299.79749	169.97777	1171.72626	-274.82253	199.74210	1239.88704	-337.47521	257.40992	1308.92686	-435.59020	291.08352	1306.11569	-415.45511	67.74084	1235.69457	-761.82374	256.65656	1111.16485	-801.10882	245.51920	1176.19853	-835.14980	281.59294	1247.84527	-761.16532	314.51298	1310.19632	-662.36145	352.19133	1297.54931	-669.01724	-300.17742	760.89970	-494.01621	-284.52456	754.60485	-700.83811	-282.75792	783.03457	-517.62583	-273.03339	770.46800	-658.36932	
